<?xml version="1.0" encoding="iso-8859-1"?>
<!-- Uploaded to: SVG Repo, www.svgrepo.com, Generator: SVG Repo Mixer Tools -->
<svg height="800px" width="800px" version="1.1" id="Layer_1" xmlns="http://www.w3.org/2000/svg" xmlns:xlink="http://www.w3.org/1999/xlink" 
	 viewBox="0 0 512 512" xml:space="preserve">
<circle style="fill:#1FDBE2;" cx="256" cy="256" r="256"/>
<path style="fill:#22BFBF;" d="M302.092,507.852c103.412-18.803,185.153-99.73,205.177-202.712L381.845,179.717l-20.43,15.108
	l-33.614-33.614l-15.429,23.478l26.676,26.677l-113.492,83.927l-74.718-74.719l5.08,25.833l-57.21-57.208l7.309,35.197
	L208.063,326.44l-76.209,11.178L302.092,507.852z"/>
<g>
	<path style="fill:#D35933;" d="M333.576,179.717h48.269c0,0-5.12,24.135-24.135,24.135s-24.135,0-24.135,0V179.717z"/>
	<path style="fill:#D35933;" d="M336.158,218.331h34.135c0,0-3.62-17.065-17.068-17.065s-17.068,0-17.068,0L336.158,218.331z"/>
</g>
<path style="fill:#FFC61B;" d="M326.265,246.088h-2.844c11.585-11.412,18.775-27.276,18.775-44.822
	c0-34.751-28.172-62.923-62.923-62.923s-62.923,28.172-62.923,62.923c0,17.546,7.189,33.409,18.775,44.822h-51.081
	c0,0-51.143,0-85.333-56.889c0,0-15.803,170.667,85.333,170.667h142.222c31.418,0,56.889-25.471,56.889-56.889l0,0
	C383.154,271.558,357.685,246.088,326.265,246.088z"/>
<path style="fill:#F4A200;" d="M326.265,246.088h-2.844c11.585-11.412,18.775-27.276,18.775-44.822
	c0-34.751-28.172-62.923-62.923-62.923c-3.025,0-5.996,0.226-8.906,0.64v220.882h55.899c31.418,0,56.889-25.471,56.889-56.889
	S357.685,246.088,326.265,246.088z"/>
<circle style="fill:#59595B;" cx="293.926" cy="186.613" r="11.205"/>
<path style="fill:#EAA22F;" d="M204.795,328.49h89.929c19.866,0,35.971-16.105,35.971-35.971l0,0
	c0-19.866-16.105-35.971-35.971-35.971h-89.929c0,0-32.339,0-53.958-35.971C150.838,220.574,140.845,328.49,204.795,328.49z"/>
<path style="fill:#E09112;" d="M294.724,256.546h-24.359v71.944h24.359c19.866,0,35.971-16.105,35.971-35.971
	S314.592,256.546,294.724,256.546z"/>
</svg>